# AST/ASF file generated using VICON BodyLanguage
# -----------------------------------------------
:version 1.10
:name VICON
:units
  mass 1.0
  length 0.45
  angle deg
:documentation
   .ast/.asf automatically generated from VICON data using
   VICON BodyBuilder and BodyLanguage model FoxedUp or BRILLIANT.MOD
:root
   order TX TY TZ RX RY RZ
   axis XYZ
   position 0 0 0  
   orientation 0 0 0 
:bonedata
  begin
     id 1 
     name lhipjoint
     direction 0.756833 -0.6125 0.228138 
     length 2.53827 
     axis 0 0 0  XYZ
  end
  begin
     id 2 
     name lfemur
     direction 0.34202 -0.939693 0  
     length 6.51821  
     axis 0 0 20  XYZ
    dof rx ry rz
    limits (-160.0 20.0)
           (-70.0 70.0)
           (-60.0 70.0)
  end
  begin
     id 3 
     name ltibia
     direction 0.34202 -0.939693 0   
     length 6.99902   
     axis 0 0 20   XYZ
    dof rx
    limits (-10.0 170.0)
  end
  begin
     id 4 
     name lfoot
     direction 0.0951515 -0.261427 0.960522   
     length 1.92102   
     axis -90 7.62852e-016 20   XYZ
    dof rx rz
    limits (-45.0 90.0)
           (-70.0 20.0)
  end
  begin
     id 5 
     name ltoes
     direction 1.53539e-011 -4.21781e-011 1   
     length 0.964376   
     axis -90 7.62852e-016 20   XYZ
    dof rx
    limits (-90.0 20.0)
  end
  begin
     id 6 
     name rhipjoint
     direction -0.752153 -0.617542 0.230017   
     length 2.51754  
     axis 0 0 0  XYZ 
  end
  begin
     id 7 
     name rfemur
     direction -0.34202 -0.939693 0   
     length 6.82377   
     axis 0 0 -20   XYZ
    dof rx ry rz
    limits (-160.0 20.0)
           (-70.0 70.0)
           (-70.0 60.0)
  end
  begin
     id 8 
     name rtibia
     direction -0.34202 -0.939693 0   
     length 6.98689   
     axis 0 0 -20   XYZ
    dof rx
    limits (-10.0 170.0)
 end
 begin
     id 9 
     name rfoot
     direction -0.0900426 -0.24739 0.964723   
     length 2.03215  
     axis -90 -7.62852e-016 -20   XYZ
    dof rx rz
    limits (-45.0 90.0)
           (-20.0 70.0)
  end
  begin
     id 10 
     name rtoes
     direction -1.53466e-011 -4.22206e-011 1   
     length 1.0197   
     axis -90 -7.62852e-016 -20   XYZ
    dof rx
    limits (-90.0 20.0)
  end
  begin
     id 11 
     name lowerback
     direction 0.0184183 0.995705 -0.0907278   
     length 2.019   
     axis 0 0 0   XYZ
    dof rx ry rz
    limits (-20.0 45.0)
           (-30.0 30.0)
           (-30.0 30.0)
  end
  begin
     id 12 
     name upperback
     direction 0.00281055 0.998777 0.0493607   
     length 1.99623   
     axis 0 0 0   XYZ
    dof rx ry rz
    limits (-20.0 45.0)
           (-30.0 30.0)
           (-30.0 30.0)
  end
  begin
     id 13 
     name thorax
     direction -0.00665507 0.995706 0.092331   
     length 2.02811   
     axis 0 0 0   XYZ
    dof rx ry rz
    limits (-20.0 45.0)
           (-30.0 30.0)
           (-30.0 30.0)
  end
  begin
     id 14 
     name lowerneck
     direction -0.0960965 0.994358 0.0449225   
     length 1.71265   
     axis 0 0 0   XYZ
    dof rx ry rz
    limits (-20.0 45.0)
           (-30.0 30.0)
           (-30.0 30.0)
  end
  begin
     id 15 
     name upperneck
     direction 0.13642 0.985357 -0.102278   
     length 1.73016   
     axis 0 0 0   XYZ
    dof rx ry rz
    limits (-20.0 45.0)
           (-30.0 30.0)
           (-30.0 30.0)
  end
  begin
     id 16
     name head
     direction 0.0556079 0.997632 -0.040479  
     length 1.74275  
     axis 0 0 0   XYZ
    dof rx ry rz
    limits (-20.0 45.0)
           (-30.0 30.0)
           (-30.0 30.0)
  end
  begin
     id 17 
     name lclavicle
     direction 0.90877 0.417247 -0.00652364  
     length 3.25514  
     axis 0 0 0   XYZ
    dof ry rz
    limits (-20.0 10.0)
           (0.0 20.0)
  end
  begin
     id 18 
     name lhumerus
     direction 1 -4.48949e-011 8.31417e-028   
     length 4.84834   
     axis 180 -30 -90   XYZ
    dof rx ry rz
    limits (-60.0 90.0)
           (-90.0 90.0)
           (-90.0 90.0)
  end
  begin
     id 19
     name lradius
     direction 1 -4.48984e-011 3.45616e-027   
     length 2.99713   
     axis 180 -30 -90   XYZ
    dof rx
    limits (-10.0 170.0)
  end
  begin
     id 20
     name lwrist
     direction 1 -4.4891e-011 4.0479e-027   
     length 1.49857   
     axis -1.61768e-015 90 90   XYZ
    dof ry
    limits (-180.0 0.0)
 end
  begin
     id 21 
     name lhand
     direction 1 -4.49025e-011 8.0958e-027   
     length 0.693987   
     axis -5.16581e-015 90 90   XYZ
    dof rx rz
    limits (-90.0 90.0)
           (-45.0 45.0)
  end
  begin
     id 22 
     name lfingers
     direction 1 -4.4888e-011 1.61916e-026   
     length 0.55951   
     axis -1.03316e-014 90 90   XYZ
    dof rx
    limits (0.0 90.0)
  end
  begin
     id 23
     name lthumb
     direction 0.707107 -6.3493e-011 0.707107   
     length 0.803348   
     axis -90 45 2.85299e-015   XYZ
    dof rx rz
    limits (-45.0 45.0)
           (-45.0 45.0)
  end
  begin
     id 24 
     name rclavicle
     direction -0.906655 0.41906 0.0486307   
     length 3.3311  
     axis 0 0 0   XYZ 
    dof ry rz
    limits (-10.0 20.0)
           (-20.0 0.0)
  end
  begin
     id 25 
     name rhumerus
     direction -1 -4.48959e-011 6.37764e-018  
     length 4.93457   
     axis 180 30 90   XYZ
    dof rx ry rz
    limits (-90.0 60.0)
           (-90.0 90.0)
           (-90.0 90.0)
  end
  begin
     id 26 
     name rradius
     direction -1 -4.48957e-011 2.20847e-027   
     length 3.3443   
     axis 180 30 90   XYZ
    dof rx
    limits (-10.0 170.0)
  end
  begin
     id 27 
     name rwrist
     direction -1 -4.49008e-011 4.0479e-027   
     length 1.67215   
     axis -1.61768e-015 -90 -90   XYZ
    dof ry
    limits (-180.0 0.0)
  end
  begin
     id 28
     name rhand
     direction -1 -4.49013e-011 8.0958e-027   
     length 0.677363   
     axis -5.16581e-015 -90 -90   XYZ
    dof rx rz
    limits (-90.0 90.0)
           (-45.0 45.0)
  end
  begin
     id 29
     name rfingers
     direction -1 -4.48832e-011 1.61916e-026   
     length 0.546107   
     axis -1.03316e-014 -90 -90   XYZ
    dof rx
    limits (0.0 90.0)
  end
  begin
     id 30
     name rthumb
     direction -0.707107 -6.34895e-011 0.707107   
     length 0.784104   
     axis -90 -45 -2.85299e-015   XYZ
    dof rx rz
    limits (-45.0 45.0)
           (-45.0 45.0)
  end
:hierarchy
  begin
    root lhipjoint rhipjoint lowerback
    lhipjoint lfemur
    lfemur ltibia
    ltibia lfoot
    lfoot ltoes
    rhipjoint rfemur
    rfemur rtibia
    rtibia rfoot
    rfoot rtoes
    lowerback upperback
    upperback thorax
    thorax lowerneck lclavicle rclavicle
    lowerneck upperneck
    upperneck head
    lclavicle lhumerus
    lhumerus lradius
    lradius lwrist
    lwrist lhand lthumb
    lhand lfingers
    rclavicle rhumerus
    rhumerus rradius
    rradius rwrist
    rwrist rhand rthumb
    rhand rfingers
  end

#!OML:ASF H:\Terrain\Patient Classification 1\junglegym\FridayTest\junglegym.ASF
:FULLY-SPECIFIED
:DEGREES
1
root -4.65679 15.782 0.254311 -24.1504 -82.2316 23.0779
lowerback 2.62756 0.258427 0.643867
upperback -9.91312 0.0555674 -0.504214
thorax -12.1209 -0.190539 -0.886153
lowerneck -1.25484 1.20659 -13.5463
upperneck 33.4418 -0.919129 9.17986
head 11.0121 -1.72504 5.62889
rclavicle 1.63003e-014 1.39149e-014
rhumerus 95.3964 -10.2004 -63.8403
rradius 31.7261
rwrist 19.6298
rhand 13.6392 18.0214
rfingers 7.12502
rthumb 38.5692 -7.62066
lclavicle 1.63003e-014 1.39149e-014
lhumerus 87.7315 14.8203 55.2459
lradius 30.8412
lwrist -27.7709
lhand 4.27122 17.7631
lfingers 7.12502
lthumb 29.6746 45.4087
rfemur -6.92636 -5.04616 22.8202
rtibia 69.4187
rfoot 11.4326 -8.52324
rtoes 17.0965
lfemur 2.7118 6.473 -16.8306
ltibia 69.3181
lfoot 16.3108 1.37346
ltoes -34.8227
2
root -4.95945 15.7931 0.28193 -32.6613 -81.4238 30.2663
lowerback 3.06914 0.325242 -0.506986
upperback -9.5495 0.0275672 -0.907139
thorax -11.9746 -0.106808 -0.67722
lowerneck -1.45121 1.16145 -13.4123
upperneck 33.7201 -0.957843 9.07257
head 11.1686 -1.74746 5.57515
rclavicle -9.14409e-015 4.37326e-015
rhumerus 95.8342 -10.4101 -63.8636
rradius 31.9227
rwrist 19.6426
rhand 13.6553 17.452
rfingers 7.12502
rthumb 38.5844 -8.18579
lclavicle -9.14409e-015 4.37326e-015
lhumerus 88.4928 14.8331 56.1064
lradius 31.0438
lwrist -27.9832
lhand 4.94198 18.0905
lfingers 7.12502
lthumb 30.3146 45.6204
rfemur -6.41368 -5.61824 20.9698
rtibia 71.5435
rfoot 18.5451 -11.1598
rtoes 19.0107
lfemur 3.81728 6.61288 -18.1074
ltibia 69.1878
lfoot 15.8459 1.60611
ltoes -33.9467
3
root -5.24627 15.8073 0.293406 -29.5478 -81.7368 26.4597
lowerback 3.07138 0.351008 0.119805
upperback -9.47713 0.146123 -0.721232
thorax -11.888 -0.0941989 -0.842449
lowerneck -1.49579 1.17611 -13.6464
upperneck 34.0064 -0.908065 8.99798
head 11.2909 -1.78077 5.60504
rclavicle 1.80894e-014 1.19271e-014
rhumerus 96.6582 -10.0573 -64.8518
rradius 31.6821
rwrist 20.4344
rhand 14.3791 17.8169
rfingers 7.12502
rthumb 39.2669 -7.62618
lclavicle 1.80894e-014 1.19271e-014
lhumerus 88.7919 14.9914 56.9216
lradius 31.4875
lwrist -27.9777
lhand 5.49755 18.1656
lfingers 7.12502
lthumb 30.8444 45.5966
rfemur -6.6762 -5.50075 21.7191
rtibia 73.05
rfoot 24.5649 -14.5014
rtoes 18.5137
lfemur 3.51908 6.99925 -17.0698
ltibia 70.3392
lfoot 14.6632 1.04594
ltoes -33.9719
4
root -5.51349 15.8146 0.292903 -19.9324 -82.4039 16.5533
lowerback 2.75093 0.542881 1.76173
upperback -9.47421 0.546648 -0.753806
thorax -11.6687 -0.0541789 -1.84522
lowerneck -2.62595 1.11296 -14.7768
upperneck 34.7517 -1.15556 10.4853
head 11.848 -1.88747 6.43584
rclavicle 2.45499e-014 -2.38542e-015
rhumerus 97.1006 -10.6881 -65.9636
rradius 31.5026
rwrist 21.1341
rhand 14.9067 18.461
rfingers 7.12502
rthumb 39.7639 -6.8359
lclavicle 2.45499e-014 -2.38542e-015
lhumerus 89.4481 14.4811 57.1468
lradius 32.1732
lwrist -27.5572
lhand 5.62389 18.1829
lfingers 7.12502
lthumb 30.9649 45.5911
rfemur -7.41897 -5.01216 23.6919
rtibia 74.564
rfoot 27.6662 -17.2613
rtoes 16.0933
lfemur 2.46939 7.52059 -14.8745
ltibia 71.6375
lfoot 13.5633 0.473553
ltoes -31.7503
5
root -5.76944 15.8062 0.29374 -14.8201 -82.653 11.0472
lowerback 2.34955 0.865934 2.40114
upperback -9.07428 1.01513 -1.09414
thorax -10.9307 0.120549 -2.6167
lowerneck -2.32769 0.233067 -11.1741
upperneck 33.8442 -2.29314 8.49584
head 11.5507 -2.11525 4.84224
rclavicle 1.23371e-014 1.93256e-014
rhumerus 97.7431 -12.2599 -66.5321
rradius 31.6175
rwrist 21.2527
rhand 15.4812 18.4595
rfingers 7.12502
rthumb 40.3044 -6.67402
lclavicle 1.23371e-014 1.93256e-014
lhumerus 91.3772 13.8116 57.5968
lradius 32.5168
lwrist -27.551
lhand 6.04708 18.5582
lfingers 7.12502
lthumb 31.3682 45.8888
rfemur -8.00453 -4.75179 24.6964
rtibia 76.1541
rfoot 27.8863 -18.109
rtoes 15.0939
lfemur 1.45098 8.10046 -13.4889
ltibia 72.9974
lfoot 12.4288 -0.108134
ltoes -29.6533
6
root -6.02932 15.796 0.29624 -16.7392 -82.6345 12.2514
lowerback 2.6896 0.782707 2.19742
upperback -9.1659 0.901345 -0.990859
thorax -11.253 0.0811659 -2.38582
lowerneck -1.15847 0.447098 -11.8656
upperneck 32.9436 -2.02298 8.68021
head 10.9311 -2.0522 5.02048
rclavicle -1.67973e-014 1.39149e-014
rhumerus 97.923 -12.2025 -65.9583
rradius 31.7994
rwrist 20.2946
rhand 16.0268 18.0672
rfingers 7.12502
rthumb 40.8172 -6.90701
lclavicle -1.67973e-014 1.39149e-014
lhumerus 91.7756 13.863 58.6122
lradius 32.3018
lwrist -28.5251
lhand 6.3002 18.6806
lfingers 7.12502
lthumb 31.6093 45.9641
rfemur -8.24021 -4.86335 24.5384
rtibia 77.8847
rfoot 26.3139 -17.8546
rtoes 17.0302
lfemur 0.91963 8.57991 -13.2205
ltibia 74.1292
lfoot 10.861 -0.920368
ltoes -34.6463
7
root -6.30267 15.7948 0.301316 -21.2777 -82.5256 15.7891
lowerback 3.1119 1.07946 1.97555
upperback -8.76412 1.26086 -1.56345
thorax -11.0233 0.261861 -2.92643
lowerneck -1.99428 0.0991807 -11.4533
upperneck 33.3503 -2.53994 8.84885
head 11.3191 -2.2105 4.98604
rclavicle 2.02263e-014 -7.95139e-015
rhumerus 98.219 -13.8435 -65.39
rradius 31.8613
rwrist 19.1379
rhand 16.3903 17.8468
rfingers 7.12502
rthumb 41.1587 -7.01891
lclavicle 2.02263e-014 -7.95139e-015
lhumerus 92.9817 13.2328 59.6499
lradius 32.4358
lwrist -28.7455
lhand 6.03521 19.0873
lfingers 7.12502
lthumb 31.3569 46.4201
rfemur -8.1796 -5.06445 23.9244
rtibia 79.5976
rfoot 24.1094 -17.5566
rtoes 21.397
lfemur 0.935909 8.88297 -13.5071
ltibia 74.919
lfoot 10.1198 -1.96623
ltoes -34.3499
